<?xml version="1.0" standalone="no"?><!DOCTYPE svg PUBLIC "-//W3C//DTD SVG 1.1//EN" "http://www.w3.org/Graphics/SVG/1.1/DTD/svg11.dtd"><svg t="1624347830736" class="icon" viewBox="0 0 1024 1024" version="1.1" xmlns="http://www.w3.org/2000/svg" p-id="1176" xmlns:xlink="http://www.w3.org/1999/xlink" width="200" height="200"><defs><style type="text/css"></style></defs><path d="M962.048 916.992h-24.064c-12.8 0-23.552-10.752-23.552-23.552v-11.776h-189.952v11.776c0 12.8-10.752 23.552-23.552 23.552h-24.064c-12.8 0-23.552-10.752-23.552-23.552v-60.928-3.072-4.096l4.608-51.2c0-6.656 1.024-12.8 2.56-18.944l-2.56-0.512c-8.192-0.512-15.36-7.168-15.36-16.384v-7.68c0-9.216 7.68-16.896 16.384-16.896h30.72l12.288-36.352c4.608-25.088 24.064-41.472 50.176-41.472H885.76c26.624 0 45.568 15.872 50.176 42.496l11.776 35.328h30.208c9.216 0 16.384 7.68 16.384 16.896v7.68c0 9.216-7.68 16.384-16.384 16.384h-0.512c2.048 6.144 3.072 12.8 3.072 19.456l4.096 49.664v69.12c1.024 13.312-9.216 24.064-22.528 24.064z m-252.416-51.2h221.184v27.136c0 4.096 3.584 7.68 7.68 7.68h24.064c4.096 0 7.68-3.584 7.68-7.68v-65.024-3.072l-4.096-49.664c0-8.704-1.536-15.872-5.12-22.528l-4.608-9.216 24.064-4.608v-7.68l-1.024-1.024h-31.232l-8.192 4.096-3.584-8.704-14.336-43.008c-4.096-19.968-16.384-30.72-35.328-30.72h-133.632c-18.432 0-31.232 11.264-34.816 29.696l-17.408 52.736-8.192-4.608H660.48l-1.024 8.704h0.512l1.536 1.024 22.528 4.096-5.12 9.728c-3.584 6.656-5.12 13.824-5.12 22.016l-4.608 51.2v67.584c0 4.096 3.584 7.68 7.68 7.68h24.064c4.608 0 7.68-3.584 7.68-7.68v-28.16h1.024z m-83.968 42.496H71.68c-18.432 0-33.792-15.36-33.792-33.792s15.36-33.792 33.792-33.792h17.92V487.936c-32.768-26.112-51.712-66.048-51.712-107.52V328.192c0-5.12 1.024-10.24 3.584-14.848l2.048-4.608h18.432V89.088h847.872v219.648h21.504l2.048 4.096c2.56 4.608 3.584 9.728 3.584 15.36v52.224c0 42.496-18.944 81.408-52.224 107.52v124.928h-67.584V517.12c-46.08 6.144-92.16-11.776-122.368-46.592-18.432 20.992-43.008 36.352-70.144 43.52l1.024 394.24zM71.68 856.064c-10.24 0-17.92 8.192-17.92 17.92 0 10.24 8.192 18.432 17.92 18.432h538.112V515.072s-22.016 4.096-52.224-1.536l14.336-12.8c17.92 3.072 37.888 0.512 37.888 0.512l6.144-1.536c29.184-6.144 55.296-22.528 73.216-46.592l6.144-8.192 6.144 8.192c23.04 30.72 59.392 49.152 97.792 49.152 8.192 0 15.872-1.024 24.576-2.56l9.216-2.048v99.328h36.352V496.128s-20.48 15.36-52.224 20.992l15.872-18.944s11.776-3.584 36.352-17.92l3.072-2.56c31.232-23.552 48.64-58.88 48.64-97.792V328.192c0-1.024 0-2.56-0.512-3.584h-27.136V104.96H77.824v219.648h-23.552c-0.512 1.024-0.512 2.56-0.512 3.584v52.224c0 37.888 18.432 74.752 48.64 97.792l3.072 2.56v375.808l-33.792-0.512z m501.76 0H141.824v-342.528s-16.896-2.56-37.888-16.896l1.536-15.872c19.968 12.288 26.112 14.336 37.376 17.92 2.048 0.512 8.704 2.048 8.704 2.048 46.08 9.728 94.208-9.216 122.368-46.592l6.144-8.192 6.144 8.192c23.04 30.72 59.392 49.152 97.792 49.152 37.888 0 74.752-18.432 97.792-49.152l6.144-8.192 6.144 8.192c17.92 24.064 44.032 40.448 73.216 46.592l6.144 1.024v354.304z m-415.744-15.872H558.08v-326.656c-27.136-6.656-51.712-22.016-70.144-43.008-26.112 30.208-64.512 47.616-103.936 47.616-39.936 0-77.824-17.408-103.936-47.616-30.208 34.304-76.288 52.736-121.856 46.592v323.072h-0.512z m754.176 12.8c-17.408 0-31.744-14.336-31.744-31.744s14.336-31.744 31.744-31.744 31.232 14.336 31.232 31.744c0 8.192-3.072 16.384-9.216 22.528-6.144 6.144-13.824 9.216-22.016 9.216z m0-47.616c-8.704 0-15.872 7.168-15.872 15.872 0 8.704 7.168 15.872 15.872 15.872 4.096 0 8.192-1.536 11.264-4.608 3.072-3.072 4.608-7.168 4.608-11.264-0.512-8.704-7.168-15.872-15.872-15.872z m-183.296 47.616c-17.408 0-31.744-14.336-31.744-31.744s14.336-31.744 31.744-31.744 31.232 14.336 31.232 31.744c0 17.408-13.824 31.744-31.232 31.744z m0-47.616c-8.704 0-15.872 7.168-15.872 15.872 0 8.704 7.168 15.872 15.872 15.872 8.704 0 15.872-7.168 15.872-15.872 0-8.704-7.168-15.872-15.872-15.872z m125.44 37.376h-66.56c-8.192 0-14.848-6.656-14.848-14.848v-19.968c0-8.192 6.656-14.848 14.848-14.848h66.56c8.192 0 14.848 6.656 14.848 14.848v19.968c0 7.68-6.656 14.848-14.848 14.848z m-1.024-34.816l-65.536 1.024 1.024 18.944 65.024-1.024-0.512-18.944z m-410.112-133.632l-46.08 46.08c-3.072 3.072-4.608 6.656-4.608 10.752s1.536 7.68 4.608 10.752c3.584 4.096 8.192 4.608 10.752 4.608 3.072 0 7.168-0.512 10.752-4.096l46.08-46.08c5.632-5.632 5.632-15.36 0-21.504-5.632-6.656-15.36-6.656-21.504-0.512z m-34.816-96.256c-4.096 0-7.68 1.536-10.752 4.608l-138.24 138.24c-3.072 2.56-4.608 6.656-4.608 10.752s1.536 7.68 4.608 10.752c2.56 3.072 6.656 4.608 10.752 4.608 3.072 0 7.168-0.512 10.752-4.096l137.728-137.728c5.632-6.144 5.632-15.36 0-21.504-2.56-4.096-6.656-5.632-10.24-5.632z m488.96 178.688h-154.112c-14.848 0-32.256-11.776-33.792-27.648v-1.536l4.608-17.408 10.24-27.648c1.024-5.632 3.584-8.704 6.144-11.264 0.512-0.512 1.536-1.536 2.048-2.56l2.56-3.072h171.008l4.608 5.632c2.56 2.56 5.12 5.632 6.144 11.776l10.24 27.136 4.608 17.408v1.024c-2.048 16.896-19.456 28.16-34.304 28.16z m-172.032-27.648c1.536 6.144 10.24 11.776 17.92 11.776h154.112c7.68 0 16.384-6.144 17.92-11.776l-3.584-13.824-10.24-27.648c-0.512-3.072-1.024-3.584-3.072-5.632H742.4c-2.048 2.048-2.048 2.56-2.56 4.096l-0.512 2.048-10.24 27.136-4.096 13.824z m-455.168-151.04c-4.096 0-7.68 1.536-10.752 4.608l-46.08 46.08c-5.632 5.632-5.632 15.36 0 21.504 3.072 3.072 6.656 4.608 10.752 4.608 3.072 0 7.168-0.512 10.752-4.608l46.08-46.08c5.632-6.144 5.632-15.36 0-21.504-2.56-3.072-6.656-4.608-10.752-4.608zM896 324.608H76.288v-15.872H896v15.872z" fill="#ffffff" p-id="1177"></path></svg>